<?xml version="1.0" encoding="UTF-8"?>
<svg xmlns="http://www.w3.org/2000/svg" xmlns:xlink="http://www.w3.org/1999/xlink" width="150px" height="px" viewBox="0 0 150 100" version="1.1">
<g id="surface1">
<rect x="0" y="0" width="150" height="100" style="fill:rgb(89.019608%,3.921569%,9.019608%);fill-opacity:1;stroke:none;"/>
<path style=" stroke:none;fill-rule:nonzero;fill:rgb(100%,100%,100%);fill-opacity:1;" d="M 69.582031 50 L 92.195312 42.652344 L 78.21875 61.886719 L 78.21875 38.113281 L 92.195312 57.347656 Z M 71.125 63.367188 C 65.175781 72.769531 53.726562 77.109375 43.039062 74.011719 C 32.351562 70.914062 25 61.125 25 50 C 25 38.875 32.351562 29.085938 43.039062 25.988281 C 53.726562 22.890625 65.175781 27.230469 71.125 36.632812 C 65.589844 30.46875 56.824219 28.359375 49.089844 31.324219 C 41.355469 34.289062 36.25 41.714844 36.25 50 C 36.25 58.285156 41.355469 65.710938 49.089844 68.675781 C 56.824219 71.640625 65.589844 69.53125 71.125 63.367188 Z M 71.125 63.367188 "/>
</g>
</svg>
